<?xml version="1.0" encoding="UTF-8"?>
<svg id="Camada_1" data-name="Camada 1" xmlns="http://www.w3.org/2000/svg" width="646.36" height="468.15" viewBox="0 0 646.36 468.15">
  <defs>
    <style>
      .cls-1 {
        fill: #8c1d80;
      }

      .cls-1, .cls-2, .cls-3, .cls-4, .cls-5, .cls-6 {
        fill-rule: evenodd;
      }

      .cls-2 {
        fill: #589c32;
      }

      .cls-7, .cls-3 {
        fill: #fff;
      }

      .cls-4 {
        fill: #13365a;
      }

      .cls-5 {
        fill: #ffcb00;
      }

      .cls-6 {
        fill: #e42913;
      }
    </style>
  </defs>
  <g>
    <g>
      <path class="cls-7" d="M46.44,346.91h2.43v31.92h-2.43v-31.92Z"/>
      <path class="cls-7" d="M104.24,346.91h2l18.63,27.43v-27.43h2.33v31.92h-2l-18.63-27.43v27.43h-2.34v-31.92Z"/>
      <path class="cls-7" d="M187.93,377.22c-2.21-1.38-3.92-3.32-5.12-5.81-1.21-2.49-1.81-5.35-1.81-8.59s.63-6.01,1.91-8.5,3.03-4.42,5.29-5.81c2.26-1.38,4.83-2.08,7.72-2.08,1.97,0,3.81.4,5.53,1.2s3.22,1.93,4.53,3.38l-1.62,1.56c-1.11-1.23-2.38-2.17-3.81-2.83-1.43-.66-2.99-.99-4.67-.99-2.45,0-4.61.59-6.48,1.77s-3.34,2.83-4.38,4.96c-1.05,2.12-1.57,4.57-1.57,7.34s.52,5.23,1.55,7.37c1.03,2.14,2.47,3.81,4.31,5,1.84,1.2,3.95,1.79,6.34,1.79,3.46,0,6.54-1.26,9.24-3.78l1.57,1.61c-3.02,2.99-6.64,4.49-10.86,4.49-2.89,0-5.44-.69-7.65-2.08Z"/>
      <path class="cls-7" d="M260,346.91h2.43v29.56h17.15v2.36h-19.58v-31.92Z"/>
      <path class="cls-7" d="M332.74,375.34c-2.08-2.64-3.12-6.39-3.12-11.24v-17.19h2.43v17.19c0,4.16.83,7.35,2.48,9.58,1.65,2.24,4.05,3.35,7.2,3.35s5.56-1.13,7.24-3.38c1.68-2.25,2.53-5.44,2.53-9.56v-17.19h2.43v17.19c0,3.12-.48,5.82-1.45,8.1-.97,2.28-2.37,4.04-4.19,5.26-1.83,1.23-4.01,1.84-6.55,1.84-3.91,0-6.9-1.32-8.98-3.97Z"/>
      <path class="cls-7" d="M406.28,374.49l1.57-1.56c1.46,1.42,3.05,2.46,4.76,3.12,1.72.66,3.64.99,5.77.99,2.64,0,4.7-.54,6.19-1.61,1.49-1.07,2.24-2.57,2.24-4.49,0-2.01-.72-3.57-2.17-4.65-1.45-1.09-3.77-1.99-6.98-2.71-2.48-.57-4.46-1.22-5.96-1.96-1.49-.74-2.6-1.67-3.34-2.79-.73-1.12-1.1-2.54-1.1-4.27,0-1.48.46-2.84,1.38-4.08.92-1.24,2.19-2.23,3.81-2.95s3.46-1.09,5.53-1.09c3.88,0,7.19,1.4,9.96,4.2l-1.52,1.56c-2.45-2.33-5.26-3.49-8.43-3.49-2.54,0-4.57.54-6.1,1.63-1.53,1.09-2.29,2.51-2.29,4.27,0,1.32.33,2.39.98,3.21.65.82,1.64,1.49,2.95,2.03,1.32.54,3.14,1.06,5.46,1.56,3.49.82,6.07,1.98,7.72,3.47,1.65,1.5,2.48,3.47,2.48,5.92,0,2.61-.96,4.68-2.88,6.21-1.92,1.53-4.61,2.29-8.08,2.29-4.73,0-8.72-1.61-11.96-4.82Z"/>
      <path class="cls-7" d="M482.76,346.91h2.43v31.92h-2.43v-31.92Z"/>
      <path class="cls-7" d="M537.46,346.91h2.62l11.15,28.71,11.25-28.71h2.48l-12.67,31.92h-2.24l-12.58-31.92Z"/>
      <path class="cls-7" d="M621.98,346.91h2.24l12.63,31.92h-2.57l-3.72-9.68h-15.06l-3.81,9.68h-2.43l12.72-31.92ZM629.66,366.88l-6.62-17-6.62,17h13.25Z"/>
    </g>
    <g>
      <path class="cls-7" d="M46.44,394.97h12.52l19.53,35.8,20.15-35.8h12.34v59.45h-13.49v-35.44l-13.58,24.71h-11.01l-13.31-24.54v35.27h-13.14v-59.45Z"/>
      <path class="cls-7" d="M121.09,394.97h41.72v12.14h-28.31v11.17h24.76v11.96h-24.76v11.87h29.11v12.31h-42.52v-59.45Z"/>
      <path class="cls-7" d="M171.15,394.97h11.45l26.45,36.06v-36.06h13.58v59.45h-11.45l-26.45-36.15v36.15h-13.58v-59.45Z"/>
      <path class="cls-7" d="M247.03,407.99h-17.84v-13.02h49.35v13.02h-17.84v46.44h-13.67v-46.44Z"/>
      <path class="cls-7" d="M285.11,394.97h41.72v12.14h-28.31v11.17h24.76v11.96h-24.76v11.87h29.11v12.31h-42.52v-59.45Z"/>
      <path class="cls-7" d="M354.25,394.97h41.72v12.14h-28.31v11.17h24.76v11.96h-24.76v11.87h29.11v12.31h-42.52v-59.45Z"/>
      <path class="cls-7" d="M427.21,394.97c5.92,0,11.18,1.25,15.8,3.74,4.62,2.49,8.2,5.98,10.74,10.47,2.54,4.49,3.82,9.63,3.82,15.44s-1.29,10.96-3.86,15.48c-2.57,4.52-6.17,8.03-10.78,10.55-4.62,2.52-9.85,3.78-15.71,3.78h-22.9v-59.45h22.9ZM439.01,437.41c2.96-3.14,4.44-7.4,4.44-12.8s-1.46-9.5-4.39-12.67-7.03-4.75-12.29-4.75h-8.7v34.92h8.61c5.27,0,9.38-1.57,12.34-4.71Z"/>
      <path class="cls-7" d="M471.72,447.96c-4.7-5.01-7.06-12.24-7.06-21.68v-31.31h13.85v31.4c0,5.51,1.08,9.66,3.24,12.44,2.16,2.79,5.25,4.18,9.28,4.18s7.22-1.41,9.41-4.22c2.19-2.81,3.28-6.95,3.28-12.4v-31.4h13.85v31.31c0,5.98-1.1,11.17-3.28,15.57-2.19,4.4-5.28,7.77-9.27,10.11-3.99,2.35-8.65,3.52-13.98,3.52-8.17,0-14.6-2.51-19.3-7.52Z"/>
      <path class="cls-7" d="M538.64,451.66c-4.41-2.55-7.83-6.14-10.25-10.77-2.43-4.63-3.64-10-3.64-16.09s1.29-11.05,3.86-15.74c2.57-4.69,6.09-8.38,10.56-11.08,4.47-2.7,9.48-4.05,15.04-4.05,4.26,0,8.27.89,12.03,2.68,3.76,1.79,6.82,4.12,9.19,6.99l-8.52,8.44c-3.31-3.75-7.37-5.63-12.16-5.63-3.14,0-5.9.78-8.3,2.33-2.4,1.55-4.25,3.72-5.55,6.51-1.3,2.79-1.95,5.97-1.95,9.54s.67,6.58,2,9.37c1.33,2.79,3.2,4.96,5.59,6.51s5.1,2.33,8.12,2.33c4.85,0,9.2-1.99,13.05-5.98l8.34,8.71c-2.66,3.05-5.87,5.44-9.63,7.17-3.76,1.73-7.92,2.59-12.47,2.59-5.8,0-10.9-1.28-15.31-3.83Z"/>
      <path class="cls-7" d="M599.84,394.97h14.47l22.54,59.45h-14.47l-4.35-12.75h-22.63l-4.35,12.75h-13.94l22.72-59.45ZM614.22,430.24l-7.46-21.72-7.54,21.72h15Z"/>
    </g>
  </g>
  <g>
    <path class="cls-4" d="M468.86,236.4h0s0,0,0,0h-.01c-.06,0-.12.01-.17.02h0c-.06,0-.12.01-.18.02h0c-.06,0-.11.02-.17.02h-.01s0,0,0,0c-.06,0-.12.02-.18.03h0c-.12.02-.24.05-.36.07h0s0,0,0,0c-.06.01-.11.03-.17.04h0s0,0,0,0c-.06.01-.11.03-.17.04h0s0,0,0,0c-.06.02-.11.03-.17.05h0c-.06.02-.12.04-.18.06h0s0,0,0,0c-.06.02-.11.04-.17.06h0s0,0,0,0c-.06.02-.11.04-.17.06h0s0,0,0,0c-.06.02-.12.04-.17.07h0s0,0,0,0c-.06.02-.12.05-.17.07h0c-.06.03-.12.05-.17.08h0s0,0,0,0c-.06.03-.12.05-.17.08-11.55,6.6-24.03,12.14-37.44,16.63-1.9.49-8.01-.22-18.32-2.14-37.91-9.81-56.87-14.72-56.87-14.72-.14-.05-.29-.1-.44-.15h0c-.44-.15-.88-.28-1.32-.41h-.01c-.15-.05-.29-.09-.44-.13h0c-.3-.08-.59-.16-.89-.23h0s-.01,0-.01,0c-.14-.03-.29-.07-.43-.1h-.01c-.3-.07-.6-.14-.9-.2h0s0,0,0,0c-.19-.04-.37-.07-.56-.11-.11-.02-.21-.04-.32-.06h-.04c-.14-.03-.28-.06-.42-.08h-.03c-.15-.03-.3-.05-.45-.07h-.01c-.14-.02-.29-.04-.43-.06h-.05c-.14-.02-.27-.04-.41-.06h-.06c-.14-.02-.28-.04-.42-.05h-.03c-.15-.02-.3-.03-.45-.05h-.03c-.14-.02-.28-.03-.43-.04h-.05c-.14-.01-.27-.02-.41-.03h-.06c-.14-.01-.28-.02-.41-.03h-.05c-.15-.01-.29-.02-.44-.02h-.01s0,0,0,0h-.01c-.15,0-.3-.01-.44-.02h-.05c-.14,0-.28,0-.43-.01h-.05c-.15,0-.29,0-.44,0h-.03c-.31,0-.62,0-.94,0h-.05c-.14,0-.29,0-.43.01h-.06c-.15,0-.29.01-.44.02h-.04c-.15,0-.3.02-.45.02h-.04c-.16.01-.32.02-.48.03h0c-.16.01-.32.02-.48.04h-.04c-.15.02-.3.03-.44.04h-.05c-.15.02-.31.03-.46.05h-.02c-.16.02-.33.04-.49.06h0c-.16.02-.32.04-.48.06h-.05c-.15.03-.31.05-.46.07h-.03c-.16.03-.31.05-.47.07h-.03c-.16.03-.33.06-.49.08h0c-.16.03-.31.05-.47.08h0s-.03,0-.03,0h-.02c-.16.03-.33.06-.49.09h0c-.16.03-.33.06-.49.1h-.03c-.16.04-.33.07-.49.11h-.01c-.33.07-.67.14-1,.22h-.04c-.16.05-.32.08-.48.12h-.04c-.16.05-.32.09-.48.13h-.03c-.17.05-.33.09-.5.13h-.03c-.16.05-.33.09-.49.14h-.04c-.16.05-.32.1-.49.14h-.02c-.16.05-.32.1-.49.15l-.06.02c-.16.05-.33.1-.49.15h-.02c-.17.06-.33.11-.5.16h-.03c-.17.06-.34.12-.51.17h-.03c-.17.07-.34.12-.52.18h0c-.17.06-.34.11-.5.17l-.05.02c-.17.06-.34.12-.5.18h-.03c-.17.07-.34.13-.51.19h-.01s-.01,0-.01,0c-.17.06-.33.12-.5.18l-.05.02c-.17.06-.33.13-.5.19l-.04.02c-.17.07-.34.13-.51.2h0s0,0,0,0h-.01c-.17.07-.34.14-.51.21l-.04.02c-.17.07-.34.14-.51.21l-.05.02c-.17.07-.35.14-.52.22l-1.55.54-.09.03-.06.02-1.23.42-.15.05-.15.05h-.03s-.12.05-.12.05l-1.36.47-.12.04h-.03s-.15.06-.15.06c-.99.34-1.98.68-2.95,1.01h0s0,0,0,0l-.15.05-1.3.44-.08.03-.06.02c12.48-7.16,21.58-10.36,30.44-10.2h.12c.14,0,.27,0,.41.01h.13c.14,0,.27.02.41.02h.12c.14.01.27.02.41.03h.11c.14.02.28.03.42.04h.11c.15.02.29.03.44.05h.09c.15.02.3.04.45.05h.08c.15.03.3.04.45.06h.09c.16.03.31.05.47.07h.05c.16.03.32.05.48.08h.05c.17.03.33.06.5.09h.02c.17.03.34.06.52.09h.02c.17.04.34.07.51.1h.02c.17.04.35.07.52.11h.01c.18.04.36.08.53.12l.4.1,32.58-29.12s-5.21-8.93-15.63-26.79l-6.69,6.3,17.72,19.94s-8.28-8.56-24.84-25.68l-45.41,44.71c.85,1.51,1.44,3.43.96,4.88-.25.76-.74,1.29-1.52,1.57.26,1.9-.11,3.66-1.81,4.45.24,1.89-.74,3.59-2.16,5.01.52,1.3.56,2.45.11,3.43-.53,1.16-1.7,1.97-3.49,2.42l-.1.02c-1.91.3-3.63.18-5.16-.36-2.41.09-4.76.46-7.05,1.12-1.45.42-2.88.95-4.28,1.6l-.04.02h-.02s-.02.02-.02.02l-.04.02-.04.02h0s-.04.02-.04.02l-.04.02h-.03s-.02.02-.02.02l-.04.02-.04.02h0s-.03.02-.03.02l-.04.02-.03.02h0s-.04.02-.04.02l-.04.02h-.02s-.02.02-.02.02l-.04.02-.04.02h0s-.04.02-.04.02l-.07.03h-.01s-.04.03-.04.03l-.04.02h-.01s-.03.02-.03.02l-.04.02-.04.02h0s-.04.02-.04.02l-.04.02h-.02s-.02.02-.02.02l-.04.02-.04.02h0s-.04.02-.04.02l-.04.02h-.03s-.01.02-.01.02l-.04.02-.04.02h-.01s-.03.02-.03.02l-.04.02-.04.02h0s-.04.02-.04.02l-.04.02h-.02s-.02.02-.02.02l-.04.02-.04.02h0s-.03.02-.03.02l-.04.02-.03.02h-.01s-.08.05-.08.05h-.01s-.03.02-.03.02l-.04.02-.04.02h0s-.04.02-.04.02l-.04.02h-.02s-.02.02-.02.02l-.04.02-.04.02h0s-.03.02-.03.02l-.04.02-.03.02h0s-.04.03-.04.03l-.04.02h-.02s-.02.02-.02.02l-.04.02-.04.02-.2.09c-10.9,3.7-20.48,6.25-28.72,7.64-15.21,2.56-32.86,2.39-37.82-12.22-1.09-3.21-1.54-8.88-1.35-12.23,1.6,7.28,1.13,18.35,15.85,22.29,6.73,1.8,15.06,1.29,22.95-.04,8.11-1.37,17.53-3.87,28.29-7.52,2.35-1.35,4.77-2.38,7.27-3.1,2.53-.73,5.13-1.13,7.8-1.21l.43.07c1.19.46,2.58.57,4.17.33,2.79-.71,2.27-2.17,1.09-4.44,2.72-.85,3.41-2.75,1.54-4.69,2.92-.42,3.79-2.26,2.57-4.41-.14-.24-.31-.49-.5-.74.34.05.65.05.92.01,2.41-.33,2.05-3.71.58-4.83-.12-.08-6.22-4.03-7.15-4.33l-.44-.15-.21-.42c-.25-.51-.55-.95-.89-1.32-.78-.85-1.78-1.37-2.92-1.5-1.2-.14-2.56.12-3.98.83-.7.35-1.4.8-2.11,1.35h0s-.01.01-.01.01h-.01s-.01.02-.01.02h0s0,.01,0,.01h-.01s-.01.02-.01.02h-.01s0,.01,0,.01l-.02.02h-.01s0,.02,0,.02h0s-.09.08-.09.08h0s-.03.02-.03.02h-.01s0,.01,0,.01h0s-.04.04-.04.04h0s-.05.04-.05.04h0s-.01.02-.01.02l-.03.02h0s0,0,0,0h0s-.03.02-.03.02h-.01s0,.02,0,.02h0s-.01.02-.01.02h-.01s-.01.02-.01.02h0s-.01.01-.01.01h-.01s-.01.02-.01.02h0s0,.01,0,.01h-.01s-.01.02-.01.02h-.01s0,.01,0,.01h0s-.01.02-.01.02h-.01s-.01.02-.01.02h0s-.01.01-.01.01h-.01s-.01.02-.01.02h0s0,.01,0,.01h-.01s-.01.02-.01.02h-.01s0,.01,0,.01h-.01s-.01.02-.01.02h-.01s0,.02,0,.02h0s-.01.02-.01.02h-.01s-.01.02-.01.02l-.06.04c-6.42,5.13-18.71,8.15-34.06,9.04,12.06-2.42,22.67-2.84,32.61-10.73l.04-.04h.01s.03-.04.03-.04l.02-.02.02-.02.03-.03h.01s.04-.05.04-.05l.04-.04h.01s.03-.04.03-.04l.02-.02.02-.02.03-.03h.01s.04-.05.04-.05h0s.04-.04.04-.04h.01s.05-.05.05-.05h0s.02-.02.02-.02l.03-.03h.01s.04-.04.04-.04h0s.04-.04.04-.04h.01s.03-.04.03-.04l.02-.02.02-.02.03-.03h.01s.04-.04.04-.04h0s.04-.03.04-.03h.01s.03-.03.03-.03l.02-.02.02-.02.03-.03h.01s.04-.04.04-.04h0s.04-.03.04-.03h.01s.03-.03.03-.03l.02-.02.02-.02.03-.02h.01s.04-.04.04-.04h0s.04-.03.04-.03h.01s.03-.03.03-.03l.02-.02.02-.02.03-.02h.01s.04-.04.04-.04h0s.04-.03.04-.03h.01s.03-.03.03-.03l.02-.02.02-.02.03-.02h.01s.04-.04.04-.04h0s.04-.03.04-.03h.01s.03-.03.03-.03l.02-.02h0s.05-.04.05-.04h.01s.04-.04.04-.04h0s.04-.03.04-.03h.01s.03-.03.03-.03h.02s.02-.03.02-.03l.03-.02h.01s.04-.03.04-.03h0s.04-.03.04-.03h.01s.03-.03.03-.03h.02s.02-.03.02-.03l.03-.02h.01s.04-.03.04-.03h0s.04-.03.04-.03h.01s.03-.03.03-.03h.02s.02-.03.02-.03l.03-.02h.01s.04-.03.04-.03h0s.04-.03.04-.03h.01s.03-.03.03-.03h.02s.02-.03.02-.03l.03-.02h.01c.23-.14.46-.26.69-.38,1.82-.91,3.61-1.24,5.23-1.05,1.68.2,3.16.95,4.31,2.22.38.42.72.89,1.02,1.42,1.07.41,2.49,1.09,2.49,1.1l5.22,3.84c.13.18.25.37.37.57l6.14-7.45c-8.22-2.03-13.98-4.7-17.27-8.01,0,1.23-.04,2.78-.13,4.41l-.02-.12c-.11-.81-.22-1.63-.34-2.46-.12-.9-.24-1.86-.35-2.76l-.05-.06c-.79-10.51-4.59-19.47-11.42-26.87-10.68,2.46-16.38-3.17-17.1-16.89,2.5,12.25,7.32,17.4,14.47,15.44,3.45-.94,3.76-3.41,7.48-3.58.82.79,2.04.99,3.07.51,1.03-.48,1.67-1.54,1.6-2.67.68.5,1.58.55,2.31.14,1.9-1.08-.11-2.78,3.79-4.92,6.4,3.47,6.53-.63,6.14-5.33-.21-2.51.51-4.22,2.17-5.13,9.46-2.86,16.7-10.5,19.05-20.1.38.71.68,1.46.91,2.24.71-1.18,1.08-2.54,1.05-3.91.85,2.47,1.02,5.12.49,7.68,2.49-6.42,2.49-13.54,0-19.96,1.61,1.35,2.94,3.01,3.91,4.88-1.61-7.82-5.11-15.12-10.19-21.28,0,0,.93.84,2.79,2.51-6.34-17.03-24.26-26.8-42.01-22.89-.28-2.04.24-4.1,1.47-5.76-1.67,1.41-2.55,3.54-2.37,5.72-3.26-3.65-8.81-4.11-12.63-1.05,3.67-2.33,8.5-1.58,11.3,1.74-10.96,1.29-20.74,7.49-26.58,16.86-5.84,9.37-7.1,20.88-3.43,31.29.33,7.1-3.15,13.76-10.47,19.96-24.83,9.38-36.46,34.78-34.89,76.2-1.32,40.59,13.33,61.46,43.96,62.63h0s.09,0,.09,0c5.86.22,12.29-.28,19.31-1.51.28-.12.56-.23.83-.36,17.49-2.69,41.63-8.51,70.71-18.74,12.22,7.24,36.14,9.2,71.78,5.86,1.69-.25,3.77.24,6.26,1.49,8.03,10.88,14.71,14.75,20.02,11.62,21.59-18.43,33.77-35.8,36.53-52.13-1.75-2.54-4.68-3.84-7.6-3.59h0ZM469.97,233.99c-1.7-.06-3.42.27-5.03,1.04l-.15.08c-11.72,6.69-24.12,12.11-36.91,16.41-1.99.55-15.1-1.72-17.14-2.17-18.9-4.89-37.8-9.78-56.69-14.68-.63-.22-1.27-.42-1.9-.6h0l.13-.03,11.08-9.97c4.35-.69,10.14-.24,14.07.89,0,0,14.94,3.02,44.82,9.06,8.1,1.06,12.88,1.36,14.33.9,10.23-4.05,19.7-8.88,28.4-14.49,4.83-2.64,8.96-.11,7.53,5.98-.58,2.49-1.43,5.02-2.53,7.59Z"/>
    <path class="cls-4" d="M46.44,333.41c191.2-66.39,399.2-66.39,590.41,0-196.09-23.6-394.31-23.6-590.41,0Z"/>
    <path class="cls-5" d="M421.26,161.72l12.32-5.01c.53-.21,1.11-.07,1.48.37.37.44.41,1.03.11,1.52l-7.06,11.26,8.57,10.17c.37.44.41,1.03.11,1.52-.3.48-.86.71-1.41.57l-12.9-3.24-7.02,11.29c-.3.48-.86.71-1.41.57-.55-.14-.94-.6-.98-1.16l-.91-13.26-12.91-3.19c-.55-.14-.94-.59-.98-1.16-.04-.57.28-1.08.81-1.29l12.34-4.96-.96-13.26c-.04-.57.28-1.08.8-1.29.53-.21,1.11-.07,1.47.37l8.53,10.2Z"/>
    <path class="cls-2" d="M374.38,121.59l6.62,2.85c.28.12.45.4.42.71-.03.31-.24.55-.55.62l-7.04,1.56-.66,7.18c-.03.31-.24.55-.54.62-.3.07-.6-.06-.76-.33l-3.66-6.21-7.03,1.59c-.3.07-.6-.06-.76-.33-.16-.27-.13-.59.08-.82l4.77-5.4-3.69-6.2c-.16-.27-.13-.59.08-.82.2-.23.52-.3.8-.18l6.61,2.87,4.75-5.42c.2-.23.52-.3.8-.18.28.12.45.4.42.71l-.69,7.18Z"/>
    <path class="cls-5" d="M174.09,252.68l8.74,1.99c.37.09.64.39.67.77.03.38-.17.73-.53.88l-8.25,3.5.81,8.93c.03.38-.17.73-.53.88-.35.15-.75.06-1-.23l-5.88-6.77-8.24,3.53c-.35.15-.75.06-1-.23-.25-.29-.29-.69-.09-1.02l4.62-7.68-5.9-6.74c-.25-.29-.29-.69-.09-1.02.2-.33.57-.49.94-.4l8.73,2.02,4.59-7.7c.2-.33.57-.49.94-.4.37.09.64.39.67.77l.78,8.93Z"/>
    <path class="cls-3" d="M159.58,166.04l11.6,1.48c.5.06.88.42.97.92.09.49-.13.97-.57,1.21l-10.28,5.58,2.18,11.49c.09.49-.13.97-.57,1.21-.44.24-.96.17-1.33-.17l-8.48-8.05-10.25,5.62c-.44.24-.96.17-1.33-.17-.36-.34-.46-.86-.25-1.31l5.03-10.56-8.52-8.02c-.36-.34-.46-.86-.25-1.31.21-.45.68-.7,1.17-.64l11.59,1.52,4.99-10.58c.21-.45.68-.71,1.17-.64.5.06.88.43.97.92l2.13,11.5Z"/>
    <path class="cls-3" d="M513.11,236.89l6.44,3.29c.28.14.42.43.37.74-.05.31-.28.54-.59.58l-7.15,1.09-1.14,7.14c-.05.31-.28.54-.59.58-.31.05-.6-.1-.74-.38l-3.25-6.46-7.14,1.12c-.31.05-.6-.1-.74-.38-.14-.28-.09-.6.13-.82l5.14-5.09-3.27-6.45c-.14-.28-.09-.6.13-.82.22-.22.54-.27.82-.13l6.43,3.32,5.12-5.11c.22-.22.54-.27.82-.13.28.14.42.43.37.74l-1.17,7.14Z"/>
    <path class="cls-1" d="M455.8,100.55l6.44,3.29c.28.14.42.43.37.74-.05.31-.28.54-.59.58l-7.15,1.09-1.14,7.14c-.05.31-.28.54-.59.58-.31.05-.6-.1-.74-.38l-3.25-6.46-7.14,1.12c-.31.05-.6-.1-.74-.38-.14-.28-.09-.6.13-.82l5.14-5.09-3.27-6.45c-.14-.28-.09-.6.13-.82.22-.22.54-.27.82-.13l6.43,3.32,5.12-5.11c.22-.22.54-.27.82-.13.28.14.42.43.37.74l-1.17,7.14Z"/>
    <path class="cls-3" d="M383.48,63.35l9.86,2.34c.42.1.72.45.75.88.03.43-.2.82-.61.99l-9.36,3.87.82,10.1c.04.43-.2.82-.6.99-.4.17-.84.06-1.13-.27l-6.57-7.71-9.35,3.9c-.4.17-.84.06-1.13-.27-.28-.33-.32-.78-.09-1.15l5.3-8.63-6.6-7.69c-.28-.33-.32-.78-.09-1.15.23-.37.65-.54,1.07-.44l9.85,2.38,5.27-8.65c.23-.37.65-.55,1.07-.44.42.1.72.45.75.88l.78,10.1Z"/>
    <path class="cls-6" d="M329.36,23.37l5.58,5.8c.24.25.29.61.13.91-.16.3-.49.46-.83.4l-7.92-1.44-3.79,7.1c-.16.3-.49.46-.83.4-.34-.06-.59-.32-.64-.66l-1.08-7.97-7.92-1.41c-.34-.06-.59-.32-.64-.66-.05-.34.12-.66.44-.81l7.25-3.49-1.11-7.97c-.05-.34.12-.66.43-.81.31-.15.67-.09.91.16l5.56,5.82,7.24-3.52c.31-.15.67-.09.91.16.24.25.29.61.12.91l-3.82,7.08Z"/>
    <path class="cls-5" d="M261.61,64.43l3.03,6.56c.13.28.07.6-.16.81-.23.21-.55.25-.82.1l-6.3-3.55-5.31,4.91c-.23.21-.55.25-.82.1-.27-.15-.41-.45-.34-.75l1.43-7.09-6.31-3.53c-.27-.15-.41-.45-.35-.75.06-.3.3-.52.61-.56l7.18-.83,1.4-7.09c.06-.3.3-.53.61-.56s.59.12.72.41l3.01,6.58,7.18-.86c.31-.04.59.12.72.4.13.28.07.6-.16.81l-5.32,4.89Z"/>
    <path class="cls-2" d="M217.11,133.51l6.44,3.29c.28.14.42.43.37.74-.05.31-.28.54-.59.58l-7.15,1.09-1.14,7.14c-.05.31-.28.54-.59.58-.31.05-.6-.1-.74-.38l-3.25-6.46-7.14,1.12c-.31.05-.6-.1-.74-.38-.14-.28-.09-.6.13-.82l5.14-5.09-3.27-6.45c-.14-.28-.09-.6.13-.82.22-.22.54-.27.82-.13l6.43,3.32,5.12-5.11c.22-.22.54-.27.82-.13.28.14.42.43.37.74l-1.17,7.14Z"/>
    <path class="cls-1" d="M192.1,69.13l7.47-2.41c.32-.1.66,0,.85.28.2.27.19.63,0,.9l-4.65,6.32,4.6,6.36c.2.27.2.63,0,.9-.2.27-.54.38-.85.27l-7.45-2.47-4.63,6.34c-.2.27-.53.38-.85.27-.32-.11-.53-.39-.52-.73l.05-7.85-7.46-2.44c-.32-.1-.53-.39-.52-.73s.21-.62.53-.72l7.48-2.38.02-7.85c0-.34.21-.62.53-.72.32-.1.66,0,.85.28l4.57,6.38Z"/>
    <path class="cls-6" d="M500.13,167.87l6.62,2.85c.28.12.45.4.42.71-.03.31-.24.55-.55.62l-7.04,1.56-.66,7.18c-.03.31-.24.55-.54.62-.3.07-.6-.06-.76-.33l-3.66-6.21-7.03,1.59c-.3.07-.6-.06-.76-.33-.16-.27-.13-.59.08-.82l4.77-5.4-3.69-6.2c-.16-.27-.13-.59.08-.82.2-.23.52-.3.8-.18l6.61,2.87,4.75-5.42c.2-.23.52-.3.8-.18.28.12.45.4.42.71l-.69,7.18Z"/>
  </g>
</svg>