<?xml version="1.0" encoding="UTF-8"?>
<svg id="Camada_1" data-name="Camada 1" xmlns="http://www.w3.org/2000/svg" width="807.23" height="239.51" viewBox="0 0 807.23 239.51">
  <defs>
    <style>
      .cls-1 {
        fill: #8c1d80;
      }

      .cls-1, .cls-2, .cls-3, .cls-4, .cls-5, .cls-6 {
        fill-rule: evenodd;
      }

      .cls-2 {
        fill: #589c32;
      }

      .cls-3 {
        fill: #0099d7;
      }

      .cls-7 {
        fill: #35a8e0;
      }

      .cls-4 {
        fill: #13365a;
      }

      .cls-5 {
        fill: #ffcb00;
      }

      .cls-6 {
        fill: #e42913;
      }
    </style>
  </defs>
  <g>
    <g>
      <path class="cls-7" d="M373.18,80.49h1.77v23.19h-1.77v-23.19Z"/>
      <path class="cls-7" d="M415.17,80.49h1.45l13.53,19.93v-19.93h1.69v23.19h-1.45l-13.53-19.93v19.93h-1.7v-23.19h0Z"/>
      <path class="cls-7" d="M475.97,102.51c-1.61-1-2.85-2.41-3.72-4.22-.88-1.81-1.31-3.89-1.31-6.24s.46-4.37,1.39-6.18,2.2-3.21,3.84-4.22c1.64-1,3.51-1.51,5.61-1.51,1.43,0,2.77.29,4.02.87s2.34,1.4,3.29,2.46l-1.18,1.13c-.81-.89-1.73-1.58-2.77-2.06-1.04-.48-2.17-.72-3.39-.72-1.78,0-3.35.43-4.71,1.29s-2.43,2.06-3.18,3.6c-.76,1.54-1.14,3.32-1.14,5.33s.38,3.8,1.13,5.35c.75,1.55,1.79,2.77,3.13,3.63,1.34.87,2.87,1.3,4.61,1.3,2.51,0,4.75-.92,6.71-2.75l1.14,1.17c-2.19,2.17-4.82,3.26-7.89,3.26-2.1,0-3.95-.5-5.56-1.51h-.01Z"/>
      <path class="cls-7" d="M528.33,80.49h1.77v21.48h12.46v1.71h-14.22v-23.19h0Z"/>
      <path class="cls-7" d="M581.17,101.14c-1.51-1.92-2.27-4.64-2.27-8.17v-12.49h1.77v12.49c0,3.02.6,5.34,1.8,6.96,1.2,1.63,2.94,2.43,5.23,2.43s4.04-.82,5.26-2.46,1.84-3.95,1.84-6.95v-12.49h1.77v12.49c0,2.27-.35,4.23-1.05,5.88s-1.72,2.94-3.04,3.82c-1.33.89-2.91,1.34-4.76,1.34-2.84,0-5.01-.96-6.52-2.88h-.01Z"/>
      <path class="cls-7" d="M634.6,100.53l1.14-1.13c1.06,1.03,2.22,1.79,3.46,2.27,1.25.48,2.64.72,4.19.72,1.92,0,3.41-.39,4.5-1.17,1.08-.78,1.63-1.87,1.63-3.26s-.52-2.59-1.58-3.38c-1.05-.79-2.74-1.45-5.07-1.97-1.8-.41-3.24-.89-4.33-1.42-1.08-.54-1.89-1.21-2.43-2.03-.53-.81-.8-1.85-.8-3.1,0-1.08.33-2.06,1-2.96s1.59-1.62,2.77-2.14,2.51-.79,4.02-.79c2.82,0,5.22,1.02,7.24,3.05l-1.1,1.13c-1.78-1.69-3.82-2.54-6.12-2.54-1.85,0-3.32.39-4.43,1.18s-1.66,1.82-1.66,3.1c0,.96.24,1.74.71,2.33.47.6,1.19,1.08,2.14,1.47.96.39,2.28.77,3.97,1.13,2.54.6,4.41,1.44,5.61,2.52,1.2,1.09,1.8,2.52,1.8,4.3,0,1.9-.7,3.4-2.09,4.51s-3.35,1.66-5.87,1.66c-3.44,0-6.33-1.17-8.69-3.5h0Z"/>
      <path class="cls-7" d="M690.16,80.49h1.77v23.19h-1.77v-23.19Z"/>
      <path class="cls-7" d="M729.9,80.49h1.9l8.1,20.86,8.17-20.86h1.8l-9.2,23.19h-1.63l-9.14-23.19h0Z"/>
      <path class="cls-7" d="M791.3,80.49h1.63l9.18,23.19h-1.87l-2.7-7.03h-10.94l-2.77,7.03h-1.77l9.24-23.19ZM796.88,95l-4.81-12.35-4.81,12.35h9.63,0Z"/>
    </g>
    <g>
      <path class="cls-7" d="M373.18,115.4h9.1l14.19,26.01,14.64-26.01h8.96v43.19h-9.8v-25.75l-9.87,17.95h-8l-9.67-17.83v25.62h-9.55v-43.19h0Z"/>
      <path class="cls-7" d="M427.41,115.4h30.31v8.82h-20.57v8.11h17.99v8.69h-17.99v8.62h21.15v8.94h-30.89v-43.19Z"/>
      <path class="cls-7" d="M463.78,115.4h8.32l19.22,26.2v-26.2h9.87v43.19h-8.32l-19.22-26.26v26.26h-9.87v-43.19Z"/>
      <path class="cls-7" d="M518.9,124.86h-12.96v-9.46h35.85v9.46h-12.96v33.74h-9.93v-33.74h0Z"/>
      <path class="cls-7" d="M546.57,115.4h30.31v8.82h-20.57v8.11h17.99v8.69h-17.99v8.62h21.15v8.94h-30.89v-43.19h0Z"/>
      <path class="cls-7" d="M596.8,115.4h30.31v8.82h-20.57v8.11h17.99v8.69h-17.99v8.62h21.15v8.94h-30.89v-43.19h0Z"/>
      <path class="cls-7" d="M649.8,115.4c4.3,0,8.12.91,11.48,2.72s5.96,4.34,7.8,7.61c1.85,3.26,2.78,7,2.78,11.22s-.94,7.96-2.8,11.25c-1.87,3.28-4.48,5.83-7.83,7.66-3.36,1.83-7.16,2.75-11.41,2.75h-16.64v-43.19h16.64,0ZM658.37,146.24c2.15-2.28,3.23-5.38,3.23-9.3s-1.06-6.9-3.19-9.2-5.11-3.45-8.93-3.45h-6.32v25.37h6.26c3.83,0,6.81-1.14,8.96-3.42h0Z"/>
      <path class="cls-7" d="M682.14,153.9c-3.41-3.64-5.13-8.89-5.13-15.75v-22.75h10.06v22.81c0,4,.78,7.02,2.35,9.04,1.57,2.03,3.81,3.04,6.74,3.04s5.25-1.02,6.84-3.07,2.38-5.05,2.38-9.01v-22.81h10.06v22.75c0,4.34-.8,8.11-2.38,11.31-1.59,3.2-3.84,5.64-6.73,7.34-2.9,1.71-6.28,2.56-10.16,2.56-5.94,0-10.61-1.82-14.02-5.46h-.01Z"/>
      <path class="cls-7" d="M730.75,156.59c-3.2-1.85-5.69-4.46-7.45-7.82-1.77-3.36-2.64-7.26-2.64-11.69s.94-8.03,2.8-11.43c1.87-3.41,4.42-6.09,7.67-8.05,3.25-1.96,6.89-2.94,10.93-2.94,3.09,0,6.01.65,8.74,1.95,2.73,1.3,4.95,2.99,6.68,5.08l-6.19,6.13c-2.4-2.72-5.35-4.09-8.83-4.09-2.28,0-4.29.57-6.03,1.69-1.74,1.13-3.09,2.7-4.03,4.73s-1.42,4.34-1.42,6.93.49,4.78,1.45,6.81,2.32,3.6,4.06,4.73,3.71,1.69,5.9,1.69c3.52,0,6.68-1.45,9.48-4.34l6.06,6.33c-1.93,2.22-4.26,3.95-7,5.21s-5.75,1.88-9.06,1.88c-4.21,0-7.92-.93-11.12-2.78h0Z"/>
      <path class="cls-7" d="M775.22,115.4h10.51l16.38,43.19h-10.51l-3.16-9.26h-16.44l-3.16,9.26h-10.13l16.51-43.19h0ZM785.66,141.03l-5.42-15.78-5.48,15.78h10.9Z"/>
    </g>
  </g>
  <g>
    <path class="cls-4" d="M312.01,165.78h0s-.09,0-.12.01h0s-.09,0-.13.01h0s-.08.01-.12.01h0s-.09.01-.13.02h0c-.09.01-.17.04-.26.05h0s-.08.02-.12.03h0s-.08.02-.12.03h0s-.08.02-.12.04h0s-.09.03-.13.04h0s-.08.03-.12.04h0s-.08.03-.12.04h0s-.09.03-.12.05h0s-.09.04-.12.05h0s-.09.04-.12.06h0s-.09.04-.12.06c-8.39,4.79-17.46,8.82-27.2,12.08-1.38.36-5.82-.16-13.31-1.55-27.54-7.13-41.32-10.69-41.32-10.69-.1-.04-.21-.07-.32-.11h0c-.32-.11-.64-.2-.96-.3h0c-.11-.04-.21-.07-.32-.09h0c-.22-.06-.43-.12-.65-.17h0c-.1-.02-.21-.05-.31-.07h0c-.22-.05-.44-.1-.65-.15h0c-.14-.03-.27-.05-.41-.08-.08-.01-.15-.03-.23-.04h-.03c-.1-.02-.2-.04-.31-.06h-.02c-.11-.02-.22-.04-.33-.05h0c-.1-.01-.21-.03-.31-.04h-.04c-.1-.01-.2-.03-.3-.04h-.04c-.1-.01-.2-.03-.31-.04h-.02c-.11-.01-.22-.02-.33-.04h-.02c-.1-.01-.2-.02-.31-.03h-.04c-.1,0-.2-.01-.3-.02h-.04c-.1,0-.2-.01-.3-.02h-.04c-.11,0-.21-.01-.32-.01h-.01c-.11,0-.22,0-.32-.01h-.04c-.1,0-.2,0-.31,0h-1.1c-.1,0-.21,0-.31,0h-.04c-.11,0-.21,0-.32.01h-.03c-.11,0-.22.01-.33.01h-.03c-.12,0-.23.01-.35.02h0c-.12,0-.23.01-.35.03h-.03c-.11.01-.22.02-.32.03h-.04c-.11.01-.23.02-.33.04h-.01c-.12.01-.24.03-.36.04h0c-.12.01-.23.03-.35.04h-.04c-.11.02-.23.04-.33.05h-.02c-.12.02-.23.04-.34.05h-.02c-.12.02-.24.04-.36.06h0c-.12.02-.23.04-.34.06h-.04c-.12.02-.24.04-.36.07h0c-.12.02-.24.04-.36.07h-.02c-.12.03-.24.05-.36.08h0c-.24.05-.49.1-.73.16h-.03c-.12.04-.23.06-.35.09h-.03c-.12.04-.23.07-.35.09h-.02c-.12.04-.24.07-.36.09h-.02c-.12.04-.24.07-.36.1h-.03c-.12.04-.23.07-.36.1h-.01c-.12.04-.23.07-.36.11h-.04c-.12.05-.24.09-.36.12h-.01c-.12.04-.24.08-.36.12h-.02c-.12.04-.25.09-.37.12h-.02c-.12.05-.25.09-.38.13h0c-.12.04-.25.08-.36.12h-.04c-.12.06-.25.1-.36.15h-.02c-.12.05-.25.09-.37.14h-.01c-.12.04-.24.09-.36.13h-.04c-.12.06-.24.11-.36.15h-.03c-.12.07-.25.11-.37.16h0c-.12.05-.25.1-.37.15h-.03c-.12.07-.25.12-.37.17h-.04c-.12.07-.25.12-.38.17l-1.13.39-.07.02h-.04s-.89.32-.89.32l-.11.04-.11.04h-.02l-.09.04-.99.34-.09.03h-.02l-.11.04c-.72.25-1.44.49-2.14.73h0l-.11.04-.94.32-.06.02h-.04c9.07-5.19,15.68-7.51,22.11-7.4h.09c.1,0,.2,0,.3,0h.09c.1,0,.2.01.3.01h.09c.1,0,.2.01.3.02h.08c.1.01.2.02.31.03h.08c.11.01.21.02.32.04h.07c.11.01.22.03.33.04h.06c.11.02.22.03.33.04h.07c.12.02.23.04.34.05h.04c.12.02.23.04.35.06h.04c.12.02.24.04.36.07h.01c.12.02.25.04.38.07h.01c.12.03.25.05.37.07h.01c.12.03.25.05.38.08h0c.13.03.26.06.39.09l.29.07,23.67-21.16s-3.79-6.49-11.36-19.46l-4.86,4.58,12.87,14.49s-6.02-6.22-18.05-18.66l-32.99,32.48c.62,1.1,1.05,2.49.7,3.55-.18.55-.54.94-1.1,1.14.19,1.38-.08,2.66-1.31,3.23.17,1.37-.54,2.61-1.57,3.64.38.94.41,1.78.08,2.49-.39.84-1.24,1.43-2.54,1.76h-.07c-1.39.23-2.64.15-3.75-.25-1.75.07-3.46.33-5.12.81-1.05.31-2.09.69-3.11,1.16h-.03s-.01.01-.01.01h-.01s-.03.03-.03.03h-.03s-.03.03-.03.03h-.03s-.02.01-.02.01h-.01s-.03.03-.03.03h-.03s-.02.03-.02.03h-.03s-.02.03-.02.03h-.03s-.03.03-.03.03h-.03s-.03.03-.03.03h-.03s-.03.03-.03.03l-.05.02h0l-.03.02h-.03s0,.01,0,.01h-.02s-.03.03-.03.03h-.03s-.03.03-.03.03h-.03s-.01.01-.01.01h-.01s-.03.03-.03.03h-.03s-.03.03-.03.03h-.03s-.02.01-.02.01h0s-.03.03-.03.03h-.03s0,.01,0,.01h-.02s-.03.03-.03.03h-.03s-.03.03-.03.03h-.03s-.01.01-.01.01h-.01s-.03.03-.03.03h-.03s-.02.03-.02.03h-.03s-.02.03-.02.03h0l-.06.04h-.03s-.03.03-.03.03h-.03s-.03.03-.03.03h-.03s-.01.01-.01.01h-.01s-.03.03-.03.03h-.03s-.02.03-.02.03h-.03s-.02.03-.02.03h0l-.03.02h-.03s-.01.01-.01.01h-.01s-.03.03-.03.03h-.03s-.15.08-.15.08c-7.92,2.69-14.88,4.54-20.86,5.55-11.05,1.86-23.87,1.74-27.48-8.88-.79-2.33-1.12-6.45-.98-8.88,1.16,5.29.82,13.33,11.51,16.19,4.89,1.31,10.94.94,16.67-.03,5.89-1,12.74-2.81,20.55-5.46,1.71-.98,3.47-1.73,5.28-2.25,1.84-.53,3.73-.82,5.67-.88l.31.05c.86.33,1.87.41,3.03.24,2.03-.52,1.65-1.58.79-3.23,1.98-.62,2.48-2,1.12-3.41,2.12-.31,2.75-1.64,1.87-3.2-.1-.17-.23-.36-.36-.54.25.04.47.04.67,0,1.75-.24,1.49-2.7.42-3.51-.09-.06-4.52-2.93-5.19-3.15l-.32-.11-.15-.31c-.18-.37-.4-.69-.65-.96-.57-.62-1.29-1-2.12-1.09-.87-.1-1.86.09-2.89.6-.51.25-1.02.58-1.53.98h0s0,0,0,0h0v.02h-.01s0,.01,0,.01h0s-.01.02-.01.02h0s-.07.07-.07.07h-.02s0,.01,0,.01h0s-.03.04-.03.04h0l-.04.03h0s-.02.03-.02.03h-.02s0,.01,0,.01h0s0,.03,0,.03h-.01s0,.02,0,.02h-.01v.02h-.01s0,.01,0,.01h0s0,.02,0,.02h-.01s0,.02,0,.02h-.01v.02h-.01s0,.01,0,.01h0s0,0,0,0h0s0,.01,0,.01h0s0,.03,0,.03h-.01s-.04.04-.04.04c-4.66,3.73-13.59,5.92-24.74,6.57,8.76-1.76,16.47-2.06,23.69-7.8l.03-.03h0l.02-.03h.01s.01-.03.01-.03l.02-.02h0l.03-.04.03-.03h0l.02-.03h.01s.01-.03.01-.03l.02-.02h0l.03-.04h0l.03-.03h0l.04-.04h.01s.02-.04.02-.04h0l.03-.03h0l.03-.03h0l.02-.03h.01s.01-.03.01-.03l.02-.02h0l.03-.03h0l.03-.02h0l.02-.02h.01s.01-.03.01-.03l.02-.02h0l.03-.03h0l.03-.02h0l.02-.02h.01s.01-.03.01-.03h.02s0-.01,0-.01l.03-.03h0l.03-.02h0l.02-.02h.01s.01-.03.01-.03h.02s0-.01,0-.01l.03-.03h0l.03-.02h0l.02-.02h.01s.01-.03.01-.03h.02s0-.01,0-.01l.03-.03h0l.03-.02h0l.02-.02h.01s.04-.04.04-.04h0l.03-.03h0l.03-.02h0l.02-.02h.01v-.02s.04-.01.04-.01h0l.03-.02h0l.03-.02h0l.02-.02h.01v-.02s.04-.01.04-.01h0l.03-.02h0l.03-.02h0l.02-.02h.01v-.02s.04-.01.04-.01h0l.03-.02h0l.03-.02h0l.02-.02h.01v-.02s.04-.01.04-.01h0c.17-.1.33-.19.5-.28,1.32-.66,2.62-.9,3.8-.76,1.22.15,2.3.69,3.13,1.61.28.31.52.65.74,1.03.78.3,1.81.79,1.81.8l3.79,2.79c.09.13.18.27.27.41l4.46-5.41c-5.97-1.47-10.16-3.41-12.55-5.82,0,.89-.03,2.02-.09,3.2v-.09c-.09-.59-.17-1.18-.26-1.79-.09-.65-.17-1.35-.25-2.01l-.04-.04c-.57-7.64-3.33-14.14-8.3-19.52-7.76,1.79-11.9-2.3-12.42-12.27,1.82,8.9,5.32,12.64,10.51,11.22,2.51-.68,2.73-2.48,5.43-2.6.6.57,1.48.72,2.23.37.75-.35,1.21-1.12,1.16-1.94.49.36,1.15.4,1.68.1,1.38-.78-.08-2.02,2.75-3.57,4.65,2.52,4.74-.46,4.46-3.87-.15-1.82.37-3.07,1.58-3.73,6.87-2.08,12.13-7.63,13.84-14.6.28.52.49,1.06.66,1.63.52-.86.78-1.85.76-2.84.62,1.79.74,3.72.36,5.58,1.81-4.66,1.81-9.84,0-14.5,1.17.98,2.14,2.19,2.84,3.55-1.17-5.68-3.71-10.98-7.4-15.46,0,0,.68.61,2.03,1.82-4.61-12.37-17.62-19.47-30.52-16.63-.2-1.48.17-2.98,1.07-4.18-1.21,1.02-1.85,2.57-1.72,4.16-2.37-2.65-6.4-2.99-9.18-.76,2.67-1.69,6.18-1.15,8.21,1.26-7.96.94-15.07,5.44-19.31,12.25-4.24,6.81-5.16,15.17-2.49,22.73.24,5.16-2.29,10-7.61,14.5-18.04,6.81-26.49,25.27-25.35,55.36-.96,29.49,9.68,44.65,31.94,45.5h.07c4.26.16,8.93-.2,14.03-1.1.2-.09.41-.17.6-.26,12.71-1.95,30.24-6.18,51.37-13.61,8.88,5.26,26.26,6.68,52.15,4.26,1.23-.18,2.74.17,4.55,1.08,5.83,7.9,10.69,10.72,14.54,8.44,15.68-13.39,24.53-26.01,26.54-37.87-1.27-1.85-3.4-2.79-5.52-2.61h0l-.17.17ZM312.82,164.03c-1.24-.04-2.48.2-3.65.76l-.11.06c-8.51,4.86-17.52,8.8-26.81,11.92-1.45.4-10.97-1.25-12.45-1.58-13.73-3.55-27.46-7.11-41.18-10.66-.46-.16-.92-.31-1.38-.44h0l.09-.02,8.05-7.24c3.16-.5,7.37-.17,10.22.65,0,0,10.85,2.19,32.56,6.58,5.88.77,9.36.99,10.41.65,7.43-2.94,14.31-6.45,20.63-10.53,3.51-1.92,6.51-.08,5.47,4.34-.42,1.81-1.04,3.65-1.84,5.51h0Z"/>
    <path class="cls-4" d="M5.13,236.26c138.9-48.23,290.02-48.23,428.93,0-142.46-17.15-286.46-17.15-428.93,0Z"/>
    <path class="cls-5" d="M277.43,111.53l8.95-3.64c.39-.15.81-.05,1.08.27.27.32.3.75.08,1.1l-5.13,8.18,6.23,7.39c.27.32.3.75.08,1.1-.22.35-.62.52-1.02.41l-9.37-2.35-5.1,8.2c-.22.35-.62.52-1.02.41-.4-.1-.68-.44-.71-.84l-.66-9.63-9.38-2.32c-.4-.1-.68-.43-.71-.84s.2-.78.59-.94l8.96-3.6-.7-9.63c-.03-.41.2-.78.58-.94.39-.15.81-.05,1.07.27l6.2,7.41h0Z"/>
    <path class="cls-2" d="M243.38,82.37l4.81,2.07c.2.09.33.29.31.52s-.17.4-.4.45l-5.11,1.13-.48,5.22c-.02.23-.17.4-.39.45-.22.05-.44-.04-.55-.24l-2.66-4.51-5.11,1.16c-.22.05-.44-.04-.55-.24s-.09-.43.06-.6l3.47-3.92-2.68-4.5c-.12-.2-.09-.43.06-.6.15-.17.38-.22.58-.13l4.8,2.09,3.45-3.94c.15-.17.38-.22.58-.13s.33.29.31.52l-.5,5.22h.02Z"/>
    <path class="cls-5" d="M97.87,177.61l6.35,1.45c.27.07.46.28.49.56s-.12.53-.39.64l-5.99,2.54.59,6.49c.02.28-.12.53-.39.64-.25.11-.54.04-.73-.17l-4.27-4.92-5.99,2.56c-.25.11-.54.04-.73-.17s-.21-.5-.07-.74l3.36-5.58-4.29-4.9c-.18-.21-.21-.5-.07-.74s.41-.36.68-.29l6.34,1.47,3.33-5.59c.15-.24.41-.36.68-.29.27.07.46.28.49.56l.57,6.49h.01Z"/>
    <path class="cls-3" d="M87.33,114.67l8.43,1.08c.36.04.64.31.7.67.07.36-.09.7-.41.88l-7.47,4.05,1.58,8.35c.07.36-.09.7-.41.88s-.7.12-.97-.12l-6.16-5.85-7.45,4.08c-.32.17-.7.12-.97-.12-.26-.25-.33-.62-.18-.95l3.65-7.67-6.19-5.83c-.26-.25-.33-.62-.18-.95s.49-.51.85-.46l8.42,1.1,3.63-7.69c.15-.33.49-.52.85-.46.36.04.64.31.7.67l1.55,8.35h.02Z"/>
    <path class="cls-3" d="M344.16,166.14l4.68,2.39c.2.1.31.31.27.54-.04.23-.2.39-.43.42l-5.19.79-.83,5.19c-.04.23-.2.39-.43.42-.23.04-.44-.07-.54-.28l-2.36-4.69-5.19.81c-.23.04-.44-.07-.54-.28-.1-.2-.07-.44.09-.6l3.73-3.7-2.38-4.69c-.1-.2-.07-.44.09-.6s.39-.2.6-.09l4.67,2.41,3.72-3.71c.16-.16.39-.2.6-.09s.31.31.27.54l-.85,5.19v.02Z"/>
    <path class="cls-1" d="M302.53,67.09l4.68,2.39c.2.1.31.31.27.54-.04.23-.2.39-.43.42l-5.19.79-.83,5.19c-.04.23-.2.39-.43.42-.23.04-.44-.07-.54-.28l-2.36-4.69-5.19.81c-.23.04-.44-.07-.54-.28-.1-.2-.07-.44.09-.6l3.73-3.7-2.38-4.69c-.1-.2-.07-.44.09-.6s.39-.2.6-.09l4.67,2.41,3.72-3.71c.16-.16.39-.2.6-.09s.31.31.27.54l-.85,5.19v.02Z"/>
    <path class="cls-3" d="M249.99,40.06l7.16,1.7c.31.07.52.33.54.64s-.15.6-.44.72l-6.8,2.81.6,7.34c.03.31-.15.6-.44.72s-.61.04-.82-.2l-4.77-5.6-6.79,2.83c-.29.12-.61.04-.82-.2-.2-.24-.23-.57-.07-.84l3.85-6.27-4.79-5.59c-.2-.24-.23-.57-.07-.84.17-.27.47-.39.78-.32l7.16,1.73,3.83-6.28c.17-.27.47-.4.78-.32.31.07.52.33.54.64l.57,7.34v-.02Z"/>
    <path class="cls-6" d="M210.67,11.02l4.05,4.21c.17.18.21.44.09.66s-.36.33-.6.29l-5.75-1.05-2.75,5.16c-.12.22-.36.33-.6.29-.25-.04-.43-.23-.46-.48l-.78-5.79-5.75-1.02c-.25-.04-.43-.23-.46-.48-.04-.25.09-.48.32-.59l5.27-2.54-.81-5.79c-.04-.25.09-.48.31-.59.23-.11.49-.07.66.12l4.04,4.23,5.26-2.56c.23-.11.49-.07.66.12s.21.44.09.66l-2.78,5.14h0Z"/>
    <path class="cls-5" d="M161.45,40.85l2.2,4.77c.09.2.05.44-.12.59s-.4.18-.6.07l-4.58-2.58-3.86,3.57c-.17.15-.4.18-.6.07s-.3-.33-.25-.54l1.04-5.15-4.58-2.56c-.2-.11-.3-.33-.25-.54s.22-.38.44-.41l5.22-.6,1.02-5.15c.04-.22.22-.39.44-.41s.43.09.52.3l2.19,4.78,5.22-.62c.23-.03.43.09.52.29.09.2.05.44-.12.59l-3.86,3.55h0Z"/>
    <path class="cls-2" d="M129.12,91.03l4.68,2.39c.2.1.31.31.27.54-.04.23-.2.39-.43.42l-5.19.79-.83,5.19c-.04.23-.2.39-.43.42-.23.04-.44-.07-.54-.28l-2.36-4.69-5.19.81c-.23.04-.44-.07-.54-.28s-.07-.44.09-.6l3.73-3.7-2.38-4.69c-.1-.2-.07-.44.09-.6s.39-.2.6-.09l4.67,2.41,3.72-3.71c.16-.16.39-.2.6-.09.2.1.31.31.27.54l-.85,5.19v.02Z"/>
    <path class="cls-1" d="M110.95,44.26l5.43-1.75c.23-.07.48,0,.62.2.15.2.14.46,0,.65l-3.38,4.59,3.34,4.62c.15.2.15.46,0,.65-.15.2-.39.28-.62.2l-5.41-1.79-3.36,4.61c-.15.2-.39.28-.62.2s-.39-.28-.38-.53l.04-5.7-5.42-1.77c-.23-.07-.39-.28-.38-.53s.15-.45.39-.52l5.43-1.73v-5.7c.01-.25.17-.45.4-.52.23-.07.48,0,.62.2l3.32,4.64h-.01Z"/>
    <path class="cls-6" d="M334.73,116l4.81,2.07c.2.09.33.29.31.52-.02.23-.17.4-.4.45l-5.11,1.13-.48,5.22c-.02.23-.17.4-.39.45-.22.05-.44-.04-.55-.24l-2.66-4.51-5.11,1.16c-.22.05-.44-.04-.55-.24s-.09-.43.06-.6l3.47-3.92-2.68-4.5c-.12-.2-.09-.43.06-.6.15-.17.38-.22.58-.13l4.8,2.09,3.45-3.94c.15-.17.38-.22.58-.13.2.09.33.29.31.52l-.5,5.22h.02Z"/>
  </g>
</svg>