<?xml version="1.0" encoding="UTF-8"?>
<svg id="Camada_1" data-name="Camada 1" xmlns="http://www.w3.org/2000/svg" width="646.36" height="468.15" viewBox="0 0 646.36 468.15">
  <defs>
    <style>
      .cls-1 {
        fill: #fff;
      }
    </style>
  </defs>
  <path class="cls-1" d="M184.87,141.22l7.14-1.12,3.25,6.46c.14.28.43.43.74.38.31-.05.54-.28.59-.58l1.14-7.14,7.15-1.09c.31-.05.54-.28.59-.58.05-.31-.1-.6-.37-.74l-6.44-3.29,1.17-7.14c.05-.31-.1-.6-.37-.74s-.6-.09-.82.13l-5.12,5.11-6.43-3.32c-.28-.14-.6-.09-.82.13-.22.22-.27.54-.13.82l3.27,6.45-5.14,5.09c-.22.22-.27.54-.13.82.14.28.43.43.74.38ZM160.18,74.87l7.46,2.44-.05,7.85c0,.34.2.62.52.73.32.11.66,0,.85-.27l4.63-6.34,7.45,2.47c.32.11.66,0,.85-.27.2-.27.2-.62,0-.9l-4.6-6.36,4.65-6.32c.2-.27.2-.62,0-.9-.2-.27-.53-.38-.85-.28l-7.47,2.41-4.57-6.38c-.2-.27-.53-.38-.85-.28-.32.1-.53.39-.53.72l-.02,7.85-7.48,2.38c-.32.1-.53.39-.53.72,0,.34.21.62.52.73ZM618.38,333.41c-63.16-21.93-128.15-36.61-193.76-44.05,19.61-17.4,30.75-33.86,33.37-49.37-1.75-2.54-4.68-3.84-7.6-3.59h0s0,0,0,0h-.01c-.06,0-.12.01-.17.02h0c-.06,0-.12.01-.18.02h0c-.06,0-.11.02-.17.02h-.01s0,0,0,0c-.06,0-.12.02-.18.03h0c-.12.02-.24.05-.36.07h0s0,0,0,0c-.06.01-.11.03-.17.04h0s0,0,0,0c-.06.01-.11.03-.17.04h0s0,0,0,0c-.06.02-.11.03-.17.05h0c-.06.02-.12.04-.18.06h0s0,0,0,0c-.06.02-.11.04-.17.06h0s0,0,0,0c-.06.02-.11.04-.17.06h0s0,0,0,0c-.06.02-.12.04-.17.07h0s0,0,0,0c-.06.02-.12.05-.17.07h0c-.06.03-.12.05-.17.08h0s0,0,0,0c-.06.03-.12.05-.17.08-11.55,6.6-24.03,12.14-37.44,16.63-1.9.49-8.01-.22-18.32-2.14-37.91-9.81-56.87-14.72-56.87-14.72-.14-.05-.29-.1-.44-.15h0c-.44-.15-.88-.28-1.32-.41h-.01c-.15-.04-.29-.09-.44-.13h0c-.29-.08-.59-.16-.89-.23h0s-.01,0-.01,0c-.14-.03-.29-.07-.43-.1h-.01c-.3-.07-.6-.14-.9-.2h0s0,0,0,0c-.19-.04-.37-.07-.56-.11-.11-.02-.21-.04-.32-.06h-.04c-.14-.03-.28-.06-.42-.08h-.03c-.15-.03-.3-.05-.45-.07h-.01c-.14-.02-.29-.04-.43-.06h-.05c-.14-.02-.27-.04-.41-.06h-.06c-.14-.02-.28-.04-.42-.05h-.03c-.15-.02-.3-.03-.45-.05h-.03c-.14-.02-.28-.03-.43-.04h-.05c-.14-.01-.27-.02-.41-.03h-.06c-.14-.01-.28-.02-.41-.03h-.05c-.15-.01-.29-.02-.44-.02h-.01s0,0,0,0h-.01c-.15,0-.3-.01-.44-.02h-.05c-.14,0-.28,0-.43-.01h-.05c-.15,0-.29,0-.44,0h-.03c-.31,0-.62,0-.94,0h-.05c-.14,0-.29,0-.43.01h-.06c-.15,0-.29.01-.44.02h-.04c-.15,0-.3.02-.45.02h-.04c-.16.01-.32.02-.48.03h0c-.16.01-.32.02-.48.04h-.04c-.15.02-.3.03-.44.04h-.05c-.15.02-.31.03-.46.05h-.02c-.16.02-.33.04-.49.06h0c-.16.02-.32.04-.48.06h-.05c-.15.03-.31.05-.46.07h-.03c-.16.03-.31.05-.47.07h-.03c-.16.03-.33.06-.49.08h0c-.16.03-.31.05-.47.08h0s-.03,0-.03,0h-.02c-.16.03-.33.06-.49.09h0c-.16.03-.33.06-.49.1h-.03c-.16.04-.33.07-.49.11h-.01c-.33.07-.67.14-1,.22h-.04c-.16.05-.32.08-.48.12h-.04c-.16.05-.32.09-.48.13h-.03c-.17.05-.33.09-.5.13h-.03c-.16.05-.33.09-.49.14h-.04c-.16.05-.32.1-.49.14h-.02c-.16.05-.32.1-.49.15l-.06.02c-.16.05-.33.1-.49.15h-.02c-.17.06-.33.11-.5.16h-.03c-.17.06-.34.12-.51.17h-.03c-.17.07-.34.12-.52.18h0c-.17.06-.34.11-.5.17l-.05.02c-.17.06-.34.12-.5.18h-.03c-.17.07-.34.13-.51.19h-.01s-.01,0-.01,0c-.17.06-.33.12-.5.18l-.05.02c-.17.06-.33.13-.5.19l-.04.02c-.17.07-.34.13-.51.2h0s0,0,0,0h-.01c-.17.07-.34.14-.51.21l-.04.02c-.17.07-.34.14-.51.21l-.05.02c-.17.07-.35.14-.52.22l-1.55.54-.09.03-.06.02-1.23.42-.15.05-.15.05h-.03s-.12.05-.12.05l-1.36.47-.12.04h-.03s-.15.06-.15.06c-.99.34-1.98.68-2.95,1.01h0s0,0,0,0l-.15.05-1.3.44-.08.03-.06.02c12.48-7.16,21.58-10.36,30.44-10.2h.12c.14,0,.27,0,.41.01h.13c.14,0,.27.02.41.02h.12c.14.01.27.02.41.03h.11c.14.02.28.03.42.04h.11c.15.02.29.03.44.05h.09c.15.02.3.04.45.05h.08c.15.03.3.04.45.06h.09c.16.03.31.05.47.07h.05c.16.03.32.05.48.08h.05c.17.03.33.06.5.09h.02c.17.03.34.06.52.09h.02c.17.04.34.07.51.1h.02c.17.04.35.07.52.11h.01c.18.04.36.08.53.12l.4.1,32.58-29.12s-5.21-8.93-15.63-26.79l-6.69,6.3,17.72,19.94s-8.28-8.56-24.84-25.68l-45.41,44.71c.85,1.51,1.44,3.43.96,4.88-.25.76-.74,1.29-1.52,1.57.26,1.9-.11,3.66-1.81,4.45.24,1.89-.74,3.59-2.16,5.01.52,1.3.56,2.45.11,3.43-.53,1.16-1.7,1.97-3.49,2.42l-.1.02c-1.91.3-3.63.18-5.16-.36-2.41.09-4.76.46-7.05,1.12-1.45.42-2.88.95-4.28,1.6l-.04.02h-.02s-.02.02-.02.02l-.04.02-.04.02h0s-.04.02-.04.02l-.04.02h-.03s-.02.02-.02.02l-.04.02-.04.02h0s-.03.02-.03.02l-.04.02-.03.02h0s-.04.02-.04.02l-.04.02h-.02s-.02.02-.02.02l-.04.02-.04.02h0s-.04.02-.04.02l-.07.03h-.01s-.04.03-.04.03l-.04.02h-.01s-.03.02-.03.02l-.04.02-.04.02h0s-.04.02-.04.02l-.04.02h-.02s-.02.02-.02.02l-.04.02-.04.02h0s-.04.02-.04.02l-.04.02h-.03s-.01.02-.01.02l-.04.02-.04.02h-.01s-.03.02-.03.02l-.04.02-.04.02h0s-.04.02-.04.02l-.04.02h-.02s-.02.02-.02.02l-.04.02-.04.02h0s-.03.02-.03.02l-.04.02-.03.02h-.01s-.08.05-.08.05h-.01s-.03.02-.03.02l-.04.02-.04.02h0s-.04.02-.04.02l-.04.02h-.02s-.02.02-.02.02l-.04.02-.04.02h0s-.03.02-.03.02l-.04.02-.03.02h0s-.04.03-.04.03l-.04.02h-.02s-.02.02-.02.02l-.04.02-.04.02-.2.09c-10.9,3.7-20.48,6.25-28.72,7.64-15.21,2.56-32.86,2.39-37.83-12.22-1.09-3.21-1.54-8.88-1.35-12.23,1.6,7.28,1.13,18.35,15.85,22.29,6.73,1.8,15.06,1.29,22.95-.04,8.11-1.37,17.53-3.87,28.29-7.52,2.35-1.35,4.77-2.38,7.27-3.1,2.53-.73,5.13-1.13,7.8-1.21l.43.07c1.19.46,2.58.57,4.17.33,2.79-.71,2.27-2.17,1.09-4.44,2.72-.85,3.41-2.75,1.54-4.69,2.92-.42,3.79-2.26,2.57-4.4-.14-.24-.3-.49-.5-.74.34.05.65.05.92.01,2.41-.33,2.05-3.71.58-4.83-.12-.08-6.22-4.03-7.15-4.33l-.44-.15-.21-.42c-.25-.51-.55-.95-.89-1.32-.78-.85-1.78-1.37-2.92-1.5-1.2-.14-2.56.12-3.98.83-.7.35-1.4.8-2.11,1.35h0s-.01.01-.01.01h-.01s-.01.02-.01.02h0s0,.01,0,.01h-.01s-.01.02-.01.02h-.01s0,.01,0,.01l-.02.02h-.01s0,.02,0,.02h0s-.09.08-.09.08h0s-.03.02-.03.02h-.01s0,.01,0,.01h0s-.04.04-.04.04h0s-.05.04-.05.04h0s-.01.02-.01.02l-.03.02h0s0,0,0,0h0s-.02.02-.02.02h-.01s0,.02,0,.02h0s-.01.02-.01.02h-.01s-.01.02-.01.02h0s-.01.01-.01.01h-.01s-.01.02-.01.02h0s0,.01,0,.01h-.01s-.01.02-.01.02h-.01s0,.01,0,.01h-.01s-.01.02-.01.02h-.01s-.01.02-.01.02h0s-.01.01-.01.01h-.01s-.01.02-.01.02h0s0,.01,0,.01h-.01s-.01.02-.01.02h-.01s0,.01,0,.01h-.01s-.01.02-.01.02h-.01s0,.02,0,.02h0s-.01.02-.01.02h-.01s-.01.02-.01.02l-.06.04c-6.42,5.13-18.71,8.15-34.06,9.04,12.06-2.42,22.67-2.84,32.61-10.73l.04-.04h.01s.03-.04.03-.04l.02-.02.02-.02.03-.03h.01s.04-.05.04-.05l.04-.04h.01s.03-.04.03-.04l.02-.02.02-.02.03-.03h.01s.04-.05.04-.05h0s.04-.04.04-.04h.01s.05-.05.05-.05h0s.02-.02.02-.02l.03-.03h.01s.04-.04.04-.04h0s.04-.04.04-.04h.01s.03-.04.03-.04l.02-.02.02-.02.03-.03h.01s.04-.04.04-.04h0s.04-.03.04-.03h.01s.03-.03.03-.03l.02-.02.02-.02.03-.03h.01s.04-.04.04-.04h0s.04-.03.04-.03h.01s.03-.03.03-.03l.02-.02.02-.02.03-.02h.01s.04-.04.04-.04h0s.04-.03.04-.03h.01s.03-.03.03-.03l.02-.02.02-.02.03-.02h.01s.04-.04.04-.04h0s.04-.03.04-.03h.01s.03-.03.03-.03l.02-.02.02-.02.03-.02h.01s.04-.04.04-.04h0s.04-.03.04-.03h.01s.03-.03.03-.03l.02-.02h0s.05-.04.05-.04h.01s.04-.04.04-.04h0s.04-.03.04-.03h.01s.03-.03.03-.03h.02s.02-.03.02-.03l.03-.02h.01s.04-.03.04-.03h0s.04-.03.04-.03h.01s.03-.03.03-.03h.02s.02-.03.02-.03l.03-.02h.01s.04-.03.04-.03h0s.04-.03.04-.03h.01s.03-.03.03-.03h.02s.02-.03.02-.03l.03-.02h.01s.04-.03.04-.03h0s.04-.03.04-.03h.01s.03-.03.03-.03h.02s.02-.03.02-.03l.03-.02h.01c.23-.14.46-.26.69-.38,1.82-.91,3.61-1.24,5.23-1.05,1.68.2,3.16.95,4.31,2.22.38.42.72.89,1.02,1.42,1.07.41,2.49,1.09,2.49,1.1l5.22,3.84c.12.18.25.37.37.57l6.14-7.45c-8.22-2.03-13.98-4.7-17.27-8.01,0,1.23-.04,2.78-.13,4.41l-.02-.12c-.11-.81-.22-1.63-.34-2.46-.12-.9-.24-1.86-.35-2.76l-.05-.06c-.79-10.51-4.59-19.47-11.42-26.87-10.68,2.46-16.38-3.17-17.1-16.89,2.5,12.25,7.32,17.4,14.47,15.44,3.45-.94,3.76-3.41,7.48-3.58.82.79,2.04.99,3.07.51,1.03-.48,1.67-1.54,1.6-2.67.68.5,1.58.55,2.31.14,1.9-1.08-.11-2.78,3.79-4.92,6.4,3.47,6.53-.63,6.14-5.33-.21-2.51.51-4.22,2.17-5.13,9.46-2.86,16.7-10.5,19.05-20.1.38.71.68,1.46.91,2.24.71-1.18,1.08-2.54,1.05-3.91.85,2.47,1.02,5.12.49,7.68,2.49-6.42,2.49-13.54,0-19.96,1.61,1.35,2.94,3.01,3.91,4.88-1.61-7.82-5.11-15.12-10.19-21.28,0,0,.93.84,2.79,2.51-6.34-17.03-24.26-26.8-42.01-22.89-.28-2.04.24-4.1,1.47-5.76-1.67,1.41-2.55,3.54-2.37,5.72-3.26-3.65-8.81-4.11-12.63-1.05,3.67-2.33,8.5-1.58,11.3,1.74-10.96,1.29-20.74,7.49-26.58,16.86-5.84,9.37-7.1,20.88-3.43,31.29.33,7.1-3.15,13.76-10.47,19.96-24.83,9.38-36.46,34.78-34.89,76.2-1.04,31.76,7.71,51.44,26.24,59.07-63.23,7.67-125.85,22.08-186.76,43.23,196.09-23.6,394.31-23.6,590.41,0ZM323.41,273.15c12.22,7.24,36.14,9.2,71.78,5.86,1.69-.25,3.77.24,6.26,1.49,2.09,2.84,4.09,5.18,6,7.07-39.87-3.75-79.93-4.83-119.91-3.24,10.87-2.92,22.87-6.61,35.87-11.18ZM227.55,61.99l6.31,3.53-1.43,7.09c-.06.3.07.6.34.75.27.15.59.11.82-.1l5.31-4.91,6.3,3.55c.27.15.59.11.82-.1.23-.21.29-.53.16-.81l-3.03-6.56,5.32-4.89c.23-.21.29-.53.16-.81-.13-.28-.41-.44-.72-.4l-7.18.86-3.01-6.58c-.13-.28-.41-.44-.72-.41-.31.04-.55.26-.61.56l-1.4,7.09-7.18.83c-.31.04-.55.26-.61.56-.06.3.08.6.35.75ZM521.61,346.91h-2.62l12.58,31.92h2.24l12.67-31.92h-2.48l-11.25,28.71-11.15-28.71ZM127.84,173.28l-5.03,10.56c-.22.45-.12.97.25,1.31.36.34.89.41,1.33.17l10.25-5.62,8.48,8.05c.36.34.89.41,1.33.17.44-.24.67-.72.57-1.21l-2.18-11.49,10.28-5.58c.44-.24.67-.71.57-1.21-.09-.49-.48-.85-.97-.92l-11.6-1.48-2.13-11.5c-.09-.49-.47-.85-.97-.92-.5-.06-.96.19-1.17.64l-4.99,10.58-11.59-1.52c-.5-.07-.96.19-1.17.64-.21.45-.12.97.25,1.31l8.52,8.02ZM153.23,243.38l-4.59,7.7-8.73-2.02c-.37-.09-.75.07-.94.4-.2.33-.16.73.09,1.02l5.9,6.74-4.62,7.68c-.2.33-.16.73.09,1.02s.65.38,1,.23l8.24-3.53,5.88,6.77c.25.29.65.38,1,.23.35-.15.56-.5.53-.88l-.81-8.93,8.25-3.5c.35-.15.56-.5.53-.88-.03-.38-.3-.69-.67-.77l-8.74-1.99-.78-8.93c-.03-.38-.3-.69-.67-.77-.37-.09-.75.07-.94.4ZM380.78,173.12l12.91,3.19.91,13.26c.04.57.42,1.03.98,1.16s1.11-.09,1.41-.57l7.02-11.29,12.9,3.24c.55.14,1.11-.09,1.41-.57.3-.48.26-1.08-.11-1.52l-8.57-10.17,7.06-11.26c.3-.48.26-1.08-.11-1.52-.37-.44-.95-.58-1.48-.37l-12.32,5.01-8.53-10.2c-.37-.44-.95-.58-1.47-.37-.53.21-.84.72-.8,1.29l.96,13.26-12.34,4.96c-.53.21-.85.72-.81,1.29.04.57.43,1.03.98,1.16ZM468.47,176.45l7.03-1.59,3.66,6.21c.16.27.45.4.76.33.3-.07.52-.31.54-.62l.66-7.18,7.04-1.56c.3-.07.52-.31.55-.62.03-.31-.14-.59-.42-.71l-6.62-2.85.69-7.18c.03-.31-.14-.59-.42-.71-.28-.12-.6-.05-.8.18l-4.75,5.42-6.61-2.87c-.28-.12-.6-.05-.8.18-.2.23-.23.56-.08.82l3.69,6.2-4.77,5.4c-.2.23-.24.55-.08.82.16.27.46.39.76.33ZM293.61,26.49l7.92,1.41,1.08,7.97c.05.34.3.6.64.66.34.06.67-.1.83-.4l3.79-7.1,7.92,1.44c.34.06.67-.1.83-.4.16-.3.11-.66-.13-.91l-5.58-5.8,3.82-7.08c.16-.3.11-.66-.12-.91-.24-.25-.6-.31-.91-.16l-7.24,3.52-5.56-5.82c-.24-.25-.59-.31-.91-.16-.31.15-.48.47-.43.81l1.11,7.97-7.25,3.49c-.31.15-.48.47-.44.81.05.34.3.6.64.66ZM423.56,108.27l7.14-1.12,3.25,6.46c.14.28.43.43.74.38.31-.05.54-.28.59-.58l1.14-7.14,7.15-1.09c.31-.05.54-.28.59-.58.05-.31-.1-.6-.37-.74l-6.44-3.29,1.17-7.14c.05-.31-.1-.6-.37-.74-.28-.14-.6-.09-.82.13l-5.12,5.11-6.43-3.32c-.28-.14-.6-.09-.82.13-.22.22-.27.54-.13.82l3.27,6.45-5.14,5.09c-.22.22-.27.54-.13.82.14.28.43.43.74.38ZM482.26,231.06c-.22.22-.27.54-.13.82l3.28,6.45-5.14,5.09c-.22.22-.27.54-.13.82.14.28.43.43.74.38l7.14-1.12,3.25,6.46c.14.28.43.43.74.38.31-.05.54-.28.59-.58l1.14-7.14,7.15-1.09c.31-.05.54-.28.59-.58.05-.31-.1-.6-.37-.74l-6.44-3.29,1.17-7.14c.05-.31-.1-.6-.37-.74-.28-.14-.6-.09-.82.13l-5.12,5.11-6.43-3.32c-.28-.14-.6-.09-.82.13ZM403.76,234.01c-29.88-6.04-44.82-9.06-44.82-9.06-3.93-1.13-9.72-1.58-14.07-.89l-11.08,9.97-.13.03c.64.18,1.27.38,1.9.6,18.9,4.89,37.8,9.78,56.69,14.68,2.05.45,15.15,2.72,17.14,2.17,12.79-4.29,25.19-9.71,36.91-16.41l.15-.08c1.6-.77,3.33-1.11,5.03-1.04,1.11-2.57,1.95-5.1,2.53-7.59,1.42-6.09-2.7-8.62-7.53-5.98-8.7,5.61-18.17,10.44-28.4,14.49-1.46.46-6.24.16-14.33-.9ZM342.72,130.18l7.03-1.59,3.66,6.21c.16.27.45.4.76.33.3-.07.52-.31.54-.62l.66-7.18,7.04-1.56c.3-.07.52-.31.55-.62.03-.31-.14-.59-.42-.71l-6.62-2.85.69-7.18c.03-.31-.14-.59-.42-.71-.28-.12-.6-.05-.8.18l-4.75,5.42-6.61-2.87c-.28-.12-.6-.05-.8.18-.2.23-.23.56-.08.82l3.69,6.2-4.77,5.4c-.2.23-.24.55-.08.82.16.27.46.39.76.33ZM466.72,378.83v-31.92h-2.43v31.92h2.43ZM352.92,68.37l-5.3,8.63c-.23.37-.19.82.09,1.15.28.33.73.44,1.13.27l9.35-3.9,6.57,7.71c.28.33.73.44,1.13.27.4-.17.64-.56.6-.99l-.82-10.1,9.36-3.87c.4-.17.64-.55.61-.99-.03-.43-.33-.78-.75-.88l-9.86-2.34-.78-10.1c-.03-.43-.33-.78-.75-.88-.42-.1-.84.07-1.07.45l-5.27,8.65-9.85-2.38c-.42-.1-.84.07-1.07.44-.23.37-.19.83.09,1.15l6.6,7.69ZM280.05,430.24h24.76v-11.96h-24.76v-11.17h28.31v-12.14h-41.72v59.45h42.52v-12.31h-29.11v-11.87ZM424.54,398.71c-4.62-2.49-9.88-3.74-15.8-3.74h-22.9v59.45h22.9c5.86,0,11.09-1.26,15.71-3.78,4.62-2.52,8.21-6.04,10.78-10.55,2.57-4.51,3.86-9.67,3.86-15.48s-1.27-10.95-3.82-15.44c-2.54-4.49-6.12-7.97-10.74-10.47ZM420.55,437.41c-2.96,3.14-7.07,4.71-12.34,4.71h-8.61v-34.92h8.7c5.27,0,9.36,1.58,12.29,4.75s4.39,7.39,4.39,12.67-1.48,9.66-4.44,12.8ZM349.19,430.24h24.76v-11.96h-24.76v-11.17h28.31v-12.14h-41.72v59.45h42.52v-12.31h-29.11v-11.87ZM333.02,364.1c0,4.12-.84,7.31-2.53,9.56-1.68,2.25-4.1,3.38-7.24,3.38s-5.54-1.12-7.2-3.35c-1.65-2.23-2.48-5.43-2.48-9.58v-17.19h-2.43v17.19c0,4.85,1.04,8.59,3.12,11.24,2.08,2.64,5.08,3.97,8.98,3.97,2.54,0,4.72-.61,6.55-1.84,1.83-1.23,3.22-2.98,4.19-5.26.97-2.28,1.45-4.98,1.45-8.1v-17.19h-2.43v17.19ZM485.25,426.37c0,5.45-1.1,9.59-3.28,12.4-2.19,2.81-5.33,4.22-9.41,4.22s-7.12-1.39-9.28-4.18c-2.16-2.78-3.24-6.93-3.24-12.44v-31.4h-13.85v31.31c0,9.44,2.35,16.67,7.06,21.68,4.7,5.01,11.14,7.52,19.3,7.52,5.33,0,9.99-1.17,13.98-3.52,3.99-2.34,7.08-5.72,9.27-10.11,2.19-4.4,3.28-9.59,3.28-15.57v-31.31h-13.85v31.4ZM603.52,346.91l-12.72,31.92h2.43l3.81-9.68h15.06l3.72,9.68h2.57l-12.63-31.92h-2.24ZM597.94,366.88l6.62-17,6.62,17h-13.25ZM243.97,346.91h-2.43v31.92h19.58v-2.36h-17.15v-29.56ZM536.2,442.99c-3.02,0-5.72-.78-8.12-2.33s-4.26-3.72-5.59-6.51c-1.33-2.78-2-5.91-2-9.37s.65-6.76,1.95-9.54c1.3-2.78,3.15-4.95,5.55-6.51,2.4-1.55,5.16-2.33,8.3-2.33,4.79,0,8.85,1.88,12.16,5.63l8.52-8.44c-2.37-2.87-5.43-5.2-9.19-6.99-3.76-1.79-7.77-2.68-12.03-2.68-5.56,0-10.58,1.35-15.04,4.05-4.47,2.7-7.99,6.39-10.56,11.08-2.57,4.69-3.86,9.94-3.86,15.74,0,6.1,1.21,11.46,3.64,16.09,2.42,4.63,5.84,8.22,10.25,10.77,4.41,2.55,9.51,3.83,15.31,3.83,4.56,0,8.71-.87,12.47-2.59,3.76-1.73,6.97-4.12,9.63-7.17l-8.34-8.71c-3.85,3.99-8.2,5.98-13.05,5.98ZM581.37,394.97l-22.72,59.45h13.94l4.35-12.75h22.63l4.35,12.75h14.47l-22.54-59.45h-14.47ZM580.75,430.24l7.54-21.72,7.46,21.72h-15ZM170.92,350.52c1.87-1.18,4.03-1.77,6.48-1.77,1.68,0,3.24.33,4.67.99,1.43.66,2.7,1.6,3.81,2.83l1.62-1.56c-1.3-1.45-2.81-2.57-4.53-3.38s-3.56-1.2-5.53-1.2c-2.89,0-5.46.69-7.72,2.08-2.26,1.39-4.02,3.32-5.29,5.81-1.27,2.49-1.91,5.32-1.91,8.5s.6,6.11,1.81,8.59c1.21,2.49,2.91,4.42,5.12,5.81,2.21,1.39,4.76,2.08,7.65,2.08,4.22,0,7.85-1.49,10.86-4.49l-1.57-1.61c-2.7,2.52-5.78,3.78-9.24,3.78-2.38,0-4.5-.6-6.34-1.79-1.84-1.2-3.28-2.86-4.31-5.01-1.03-2.14-1.55-4.59-1.55-7.37s.53-5.22,1.57-7.34c1.05-2.13,2.51-3.78,4.38-4.96ZM87.78,346.91h-2v31.92h2.34v-27.43l18.63,27.43h2v-31.92h-2.33v27.43l-18.63-27.43ZM30.41,346.91h-2.43v31.92h2.43v-31.92ZM210.73,407.99h17.84v46.44h13.67v-46.44h17.84v-13.02h-49.35v13.02ZM406.11,375.43c-1.49,1.07-3.56,1.61-6.19,1.61-2.13,0-4.05-.33-5.77-.99-1.72-.66-3.3-1.7-4.76-3.12l-1.57,1.56c3.24,3.21,7.23,4.82,11.96,4.82,3.46,0,6.15-.76,8.08-2.29,1.92-1.53,2.88-3.59,2.88-6.21,0-2.46-.83-4.43-2.48-5.92-1.65-1.49-4.23-2.65-7.72-3.47-2.32-.5-4.14-1.02-5.46-1.56-1.32-.54-2.3-1.21-2.95-2.03-.65-.82-.98-1.89-.98-3.21,0-1.76.76-3.19,2.29-4.27,1.52-1.09,3.56-1.63,6.1-1.63,3.18,0,5.99,1.16,8.43,3.49l1.52-1.56c-2.76-2.8-6.08-4.2-9.96-4.2-2.07,0-3.91.36-5.53,1.09s-2.89,1.71-3.81,2.95c-.92,1.24-1.38,2.6-1.38,4.08,0,1.73.37,3.16,1.1,4.27.73,1.12,1.84,2.05,3.34,2.79,1.49.74,3.48,1.39,5.96,1.96,3.21.72,5.54,1.63,6.98,2.71,1.44,1.09,2.17,2.64,2.17,4.65s-.75,3.42-2.24,4.49ZM190.58,431.03l-26.45-36.06h-11.45v59.45h13.58v-36.15l26.45,36.15h11.45v-59.45h-13.58v36.06ZM60.02,430.77l-19.53-35.8h-12.52v59.45h13.14v-35.27l13.31,24.54h11.01l13.58-24.71v35.44h13.49v-59.45h-12.34l-20.15,35.8ZM116.02,430.24h24.76v-11.96h-24.76v-11.17h28.31v-12.14h-41.72v59.45h42.52v-12.31h-29.11v-11.87Z"/>
</svg>